<svg id="visual" viewBox="0 0 900 600" width="900" height="600" xmlns="http://www.w3.org/2000/svg" xmlns:xlink="http://www.w3.org/1999/xlink" version="1.1"><rect x="0" y="0" width="900" height="600" fill="#8ac0e9"></rect><path d="M0 405L21.5 401.3C43 397.7 86 390.3 128.8 397.7C171.7 405 214.3 427 257.2 433.7C300 440.3 343 431.7 385.8 436C428.7 440.3 471.3 457.7 514.2 456.2C557 454.7 600 434.3 642.8 426.3C685.7 418.3 728.3 422.7 771.2 430.3C814 438 857 449 878.5 454.5L900 460L900 601L878.5 601C857 601 814 601 771.2 601C728.3 601 685.7 601 642.8 601C600 601 557 601 514.2 601C471.3 601 428.7 601 385.8 601C343 601 300 601 257.2 601C214.3 601 171.7 601 128.8 601C86 601 43 601 21.5 601L0 601Z" fill="#6600ff"></path><path d="M0 485L21.5 474.7C43 464.3 86 443.7 128.8 439.2C171.7 434.7 214.3 446.3 257.2 457.8C300 469.3 343 480.7 385.8 484.3C428.7 488 471.3 484 514.2 482C557 480 600 480 642.8 484.7C685.7 489.3 728.3 498.7 771.2 488.7C814 478.7 857 449.3 878.5 434.7L900 420L900 601L878.5 601C857 601 814 601 771.2 601C728.3 601 685.7 601 642.8 601C600 601 557 601 514.2 601C471.3 601 428.7 601 385.8 601C343 601 300 601 257.2 601C214.3 601 171.7 601 128.8 601C86 601 43 601 21.5 601L0 601Z" fill="#0072ff"></path><path d="M0 481L21.5 482.3C43 483.7 86 486.3 128.8 494C171.7 501.7 214.3 514.3 257.2 507.8C300 501.3 343 475.7 385.8 476.7C428.7 477.7 471.3 505.3 514.2 519.7C557 534 600 535 642.8 524.3C685.7 513.7 728.3 491.3 771.2 477.2C814 463 857 457 878.5 454L900 451L900 601L878.5 601C857 601 814 601 771.2 601C728.3 601 685.7 601 642.8 601C600 601 557 601 514.2 601C471.3 601 428.7 601 385.8 601C343 601 300 601 257.2 601C214.3 601 171.7 601 128.8 601C86 601 43 601 21.5 601L0 601Z" fill="#00a1ff"></path><path d="M0 556L21.5 549.5C43 543 86 530 128.8 525.7C171.7 521.3 214.3 525.7 257.2 532.3C300 539 343 548 385.8 546.2C428.7 544.3 471.3 531.7 514.2 532C557 532.3 600 545.7 642.8 551.8C685.7 558 728.3 557 771.2 555C814 553 857 550 878.5 548.5L900 547L900 601L878.5 601C857 601 814 601 771.2 601C728.3 601 685.7 601 642.8 601C600 601 557 601 514.2 601C471.3 601 428.7 601 385.8 601C343 601 300 601 257.2 601C214.3 601 171.7 601 128.8 601C86 601 43 601 21.5 601L0 601Z" fill="#00bfe4"></path><path d="M0 567L21.5 563.8C43 560.7 86 554.3 128.8 554.2C171.7 554 214.3 560 257.2 558.7C300 557.3 343 548.7 385.8 547.3C428.7 546 471.3 552 514.2 553.8C557 555.7 600 553.3 642.8 554.7C685.7 556 728.3 561 771.2 557.5C814 554 857 542 878.5 536L900 530L900 601L878.5 601C857 601 814 601 771.2 601C728.3 601 685.7 601 642.8 601C600 601 557 601 514.2 601C471.3 601 428.7 601 385.8 601C343 601 300 601 257.2 601C214.3 601 171.7 601 128.8 601C86 601 43 601 21.5 601L0 601Z" fill="#00cc99"></path></svg>