<?xml version="1.0" standalone="no"?><svg xmlns="http://www.w3.org/2000/svg" viewBox="0 0 1440 320"><path fill="#00cc99" fill-opacity="1" d="M0,224L40,229.3C80,235,160,245,240,256C320,267,400,277,480,256C560,235,640,181,720,165.3C800,149,880,171,960,202.7C1040,235,1120,277,1200,266.7C1280,256,1360,192,1400,160L1440,128L1440,320L1400,320C1360,320,1280,320,1200,320C1120,320,1040,320,960,320C880,320,800,320,720,320C640,320,560,320,480,320C400,320,320,320,240,320C160,320,80,320,40,320L0,320Z"></path></svg>